<?xml version="1.0" encoding="utf-8" standalone="no"?>
<!DOCTYPE svg PUBLIC "-//W3C//DTD SVG 1.1//EN"
  "http://www.w3.org/Graphics/SVG/1.1/DTD/svg11.dtd">
<!-- Created with matplotlib (https://matplotlib.org/) -->
<svg height="315.36pt" version="1.1" viewBox="0 0 460.8 315.36" width="460.8pt" xmlns="http://www.w3.org/2000/svg" xmlns:xlink="http://www.w3.org/1999/xlink">
 <defs>
  <style type="text/css">
*{stroke-linecap:butt;stroke-linejoin:round;}
  </style>
 </defs>
 <g id="figure_1">
  <g id="patch_1">
   <path d="M 0 315.36 
L 460.8 315.36 
L 460.8 0 
L 0 0 
z
" style="fill:#ffffff;"/>
  </g>
  <g id="axes_1">
   <g id="patch_2">
    <path d="M 57.6 280.6704 
L 414.72 280.6704 
L 414.72 37.8432 
L 57.6 37.8432 
z
" style="fill:#ffffff;"/>
   </g>
   <g id="PolyCollection_1">
    <path clip-path="url(#p350ef3e5f5)" d="M 73.832727 280.651541 
L 73.832727 280.6704 
L 77.112066 280.6704 
L 80.391405 280.6704 
L 83.670744 280.6704 
L 86.950083 280.6704 
L 90.229421 280.6704 
L 93.50876 280.6704 
L 96.788099 280.6704 
L 100.067438 280.6704 
L 103.346777 280.6704 
L 106.626116 280.6704 
L 109.905455 280.6704 
L 113.184793 280.6704 
L 116.464132 280.6704 
L 119.743471 280.6704 
L 123.02281 280.6704 
L 126.302149 280.6704 
L 129.581488 280.6704 
L 132.860826 280.6704 
L 136.140165 280.6704 
L 139.419504 280.6704 
L 142.698843 280.6704 
L 145.978182 280.6704 
L 149.257521 280.6704 
L 152.53686 280.6704 
L 155.816198 280.6704 
L 159.095537 280.6704 
L 162.374876 280.6704 
L 165.654215 280.6704 
L 168.933554 280.6704 
L 172.212893 280.6704 
L 175.492231 280.6704 
L 178.77157 280.6704 
L 182.050909 280.6704 
L 185.330248 280.6704 
L 188.609587 280.6704 
L 191.888926 280.6704 
L 195.168264 280.6704 
L 198.447603 280.6704 
L 201.726942 280.6704 
L 205.006281 280.6704 
L 208.28562 280.6704 
L 211.564959 280.6704 
L 214.844298 280.6704 
L 218.123636 280.6704 
L 221.402975 280.6704 
L 224.682314 280.6704 
L 227.961653 280.6704 
L 231.240992 280.6704 
L 234.520331 280.6704 
L 237.799669 280.6704 
L 241.079008 280.6704 
L 244.358347 280.6704 
L 247.637686 280.6704 
L 250.917025 280.6704 
L 254.196364 280.6704 
L 257.475702 280.6704 
L 260.755041 280.6704 
L 264.03438 280.6704 
L 267.313719 280.6704 
L 270.593058 280.6704 
L 273.872397 280.6704 
L 277.151736 280.6704 
L 280.431074 280.6704 
L 283.710413 280.6704 
L 286.989752 280.6704 
L 290.269091 280.6704 
L 293.54843 280.6704 
L 296.827769 280.6704 
L 300.107107 280.6704 
L 303.386446 280.6704 
L 306.665785 280.6704 
L 309.945124 280.6704 
L 313.224463 280.6704 
L 316.503802 280.6704 
L 319.78314 280.6704 
L 323.062479 280.6704 
L 326.341818 280.6704 
L 329.621157 280.6704 
L 332.900496 280.6704 
L 336.179835 280.6704 
L 339.459174 280.6704 
L 342.738512 280.6704 
L 346.017851 280.6704 
L 349.29719 280.6704 
L 352.576529 280.6704 
L 355.855868 280.6704 
L 359.135207 280.6704 
L 362.414545 280.6704 
L 365.693884 280.6704 
L 368.973223 280.6704 
L 372.252562 280.6704 
L 375.531901 280.6704 
L 378.81124 280.6704 
L 382.090579 280.6704 
L 385.369917 280.6704 
L 388.649256 280.6704 
L 391.928595 280.6704 
L 395.207934 280.6704 
L 398.487273 280.6704 
L 398.487273 280.624619 
L 398.487273 280.624619 
L 395.207934 280.510625 
L 391.928595 280.215218 
L 388.649256 279.611834 
L 385.369917 278.660705 
L 382.090579 277.555139 
L 378.81124 276.725478 
L 375.531901 276.582481 
L 372.252562 277.183883 
L 368.973223 278.172701 
L 365.693884 279.057212 
L 362.414545 279.529136 
L 359.135207 279.550331 
L 355.855868 279.249891 
L 352.576529 278.801414 
L 349.29719 278.33864 
L 346.017851 277.903448 
L 342.738512 277.475238 
L 339.459174 277.092577 
L 336.179835 276.918378 
L 332.900496 277.110914 
L 329.621157 277.623593 
L 326.341818 278.179796 
L 323.062479 278.43459 
L 319.78314 278.121207 
L 316.503802 277.121833 
L 313.224463 275.584239 
L 309.945124 274.030117 
L 306.665785 273.169791 
L 303.386446 273.401692 
L 300.107107 274.474556 
L 296.827769 275.710267 
L 293.54843 276.536524 
L 290.269091 276.776307 
L 286.989752 276.531819 
L 283.710413 275.932725 
L 280.431074 275.000578 
L 277.151736 273.658723 
L 273.872397 271.824548 
L 270.593058 269.519026 
L 267.313719 266.905318 
L 264.03438 264.19273 
L 260.755041 261.382508 
L 257.475702 257.669556 
L 254.196364 250.236735 
L 250.917025 233.192465 
L 247.637686 199.370695 
L 244.358347 147.26541 
L 241.079008 89.115344 
L 237.799669 49.465329 
L 234.520331 49.4064 
L 231.240992 89.298695 
L 227.961653 148.527202 
L 224.682314 202.457685 
L 221.402975 238.265157 
L 218.123636 256.770039 
L 214.844298 264.745929 
L 211.564959 268.055553 
L 208.28562 269.659891 
L 205.006281 270.570376 
L 201.726942 271.112389 
L 198.447603 271.464809 
L 195.168264 271.631694 
L 191.888926 271.378079 
L 188.609587 270.479749 
L 185.330248 269.141695 
L 182.050909 268.064511 
L 178.77157 267.908424 
L 175.492231 268.687179 
L 172.212893 269.852594 
L 168.933554 270.962799 
L 165.654215 272.040555 
L 162.374876 273.241378 
L 159.095537 274.447178 
L 155.816198 275.352669 
L 152.53686 275.7773 
L 149.257521 275.718227 
L 145.978182 275.224371 
L 142.698843 274.432158 
L 139.419504 273.692094 
L 136.140165 273.451372 
L 132.860826 273.925185 
L 129.581488 274.953048 
L 126.302149 276.192726 
L 123.02281 277.373518 
L 119.743471 278.356492 
L 116.464132 279.0695 
L 113.184793 279.476344 
L 109.905455 279.588142 
L 106.626116 279.458484 
L 103.346777 279.176506 
L 100.067438 278.883457 
L 96.788099 278.757363 
L 93.50876 278.917104 
L 90.229421 279.326293 
L 86.950083 279.818585 
L 83.670744 280.226769 
L 80.391405 280.481092 
L 77.112066 280.604312 
L 73.832727 280.651541 
z
" style="fill:#1f77b4;fill-opacity:0.25;"/>
   </g>
   <g id="matplotlib.axis_1">
    <g id="xtick_1">
     <g id="line2d_1">
      <defs>
       <path d="M 0 0 
L 0 3.5 
" id="m9582a84ed8" style="stroke:#000000;stroke-width:0.8;"/>
      </defs>
      <g>
       <use style="stroke:#000000;stroke-width:0.8;" x="95.66532" xlink:href="#m9582a84ed8" y="280.6704"/>
      </g>
     </g>
     <g id="text_1">
      <!-- −1.0 -->
      <defs>
       <path d="M 10.59375 35.5 
L 73.1875 35.5 
L 73.1875 27.203125 
L 10.59375 27.203125 
z
" id="DejaVuSans-8722"/>
       <path d="M 12.40625 8.296875 
L 28.515625 8.296875 
L 28.515625 63.921875 
L 10.984375 60.40625 
L 10.984375 69.390625 
L 28.421875 72.90625 
L 38.28125 72.90625 
L 38.28125 8.296875 
L 54.390625 8.296875 
L 54.390625 0 
L 12.40625 0 
z
" id="DejaVuSans-49"/>
       <path d="M 10.6875 12.40625 
L 21 12.40625 
L 21 0 
L 10.6875 0 
z
" id="DejaVuSans-46"/>
       <path d="M 31.78125 66.40625 
Q 24.171875 66.40625 20.328125 58.90625 
Q 16.5 51.421875 16.5 36.375 
Q 16.5 21.390625 20.328125 13.890625 
Q 24.171875 6.390625 31.78125 6.390625 
Q 39.453125 6.390625 43.28125 13.890625 
Q 47.125 21.390625 47.125 36.375 
Q 47.125 51.421875 43.28125 58.90625 
Q 39.453125 66.40625 31.78125 66.40625 
z
M 31.78125 74.21875 
Q 44.046875 74.21875 50.515625 64.515625 
Q 56.984375 54.828125 56.984375 36.375 
Q 56.984375 17.96875 50.515625 8.265625 
Q 44.046875 -1.421875 31.78125 -1.421875 
Q 19.53125 -1.421875 13.0625 8.265625 
Q 6.59375 17.96875 6.59375 36.375 
Q 6.59375 54.828125 13.0625 64.515625 
Q 19.53125 74.21875 31.78125 74.21875 
z
" id="DejaVuSans-48"/>
      </defs>
      <g transform="translate(83.523913 295.268838)scale(0.1 -0.1)">
       <use xlink:href="#DejaVuSans-8722"/>
       <use x="83.789062" xlink:href="#DejaVuSans-49"/>
       <use x="147.412109" xlink:href="#DejaVuSans-46"/>
       <use x="179.199219" xlink:href="#DejaVuSans-48"/>
      </g>
     </g>
    </g>
    <g id="xtick_2">
     <g id="line2d_2">
      <g>
       <use style="stroke:#000000;stroke-width:0.8;" x="165.91266" xlink:href="#m9582a84ed8" y="280.6704"/>
      </g>
     </g>
     <g id="text_2">
      <!-- −0.5 -->
      <defs>
       <path d="M 10.796875 72.90625 
L 49.515625 72.90625 
L 49.515625 64.59375 
L 19.828125 64.59375 
L 19.828125 46.734375 
Q 21.96875 47.46875 24.109375 47.828125 
Q 26.265625 48.1875 28.421875 48.1875 
Q 40.625 48.1875 47.75 41.5 
Q 54.890625 34.8125 54.890625 23.390625 
Q 54.890625 11.625 47.5625 5.09375 
Q 40.234375 -1.421875 26.90625 -1.421875 
Q 22.3125 -1.421875 17.546875 -0.640625 
Q 12.796875 0.140625 7.71875 1.703125 
L 7.71875 11.625 
Q 12.109375 9.234375 16.796875 8.0625 
Q 21.484375 6.890625 26.703125 6.890625 
Q 35.15625 6.890625 40.078125 11.328125 
Q 45.015625 15.765625 45.015625 23.390625 
Q 45.015625 31 40.078125 35.4375 
Q 35.15625 39.890625 26.703125 39.890625 
Q 22.75 39.890625 18.8125 39.015625 
Q 14.890625 38.140625 10.796875 36.28125 
z
" id="DejaVuSans-53"/>
      </defs>
      <g transform="translate(153.771254 295.268838)scale(0.1 -0.1)">
       <use xlink:href="#DejaVuSans-8722"/>
       <use x="83.789062" xlink:href="#DejaVuSans-48"/>
       <use x="147.412109" xlink:href="#DejaVuSans-46"/>
       <use x="179.199219" xlink:href="#DejaVuSans-53"/>
      </g>
     </g>
    </g>
    <g id="xtick_3">
     <g id="line2d_3">
      <g>
       <use style="stroke:#000000;stroke-width:0.8;" x="236.16" xlink:href="#m9582a84ed8" y="280.6704"/>
      </g>
     </g>
     <g id="text_3">
      <!-- 0.0 -->
      <g transform="translate(228.208438 295.268838)scale(0.1 -0.1)">
       <use xlink:href="#DejaVuSans-48"/>
       <use x="63.623047" xlink:href="#DejaVuSans-46"/>
       <use x="95.410156" xlink:href="#DejaVuSans-48"/>
      </g>
     </g>
    </g>
    <g id="xtick_4">
     <g id="line2d_4">
      <g>
       <use style="stroke:#000000;stroke-width:0.8;" x="306.40734" xlink:href="#m9582a84ed8" y="280.6704"/>
      </g>
     </g>
     <g id="text_4">
      <!-- 0.5 -->
      <g transform="translate(298.455778 295.268838)scale(0.1 -0.1)">
       <use xlink:href="#DejaVuSans-48"/>
       <use x="63.623047" xlink:href="#DejaVuSans-46"/>
       <use x="95.410156" xlink:href="#DejaVuSans-53"/>
      </g>
     </g>
    </g>
    <g id="xtick_5">
     <g id="line2d_5">
      <g>
       <use style="stroke:#000000;stroke-width:0.8;" x="376.65468" xlink:href="#m9582a84ed8" y="280.6704"/>
      </g>
     </g>
     <g id="text_5">
      <!-- 1.0 -->
      <g transform="translate(368.703118 295.268838)scale(0.1 -0.1)">
       <use xlink:href="#DejaVuSans-49"/>
       <use x="63.623047" xlink:href="#DejaVuSans-46"/>
       <use x="95.410156" xlink:href="#DejaVuSans-48"/>
      </g>
     </g>
    </g>
    <g id="text_6">
     <!-- Post Title Polarity -->
     <defs>
      <path d="M 19.671875 64.796875 
L 19.671875 37.40625 
L 32.078125 37.40625 
Q 38.96875 37.40625 42.71875 40.96875 
Q 46.484375 44.53125 46.484375 51.125 
Q 46.484375 57.671875 42.71875 61.234375 
Q 38.96875 64.796875 32.078125 64.796875 
z
M 9.8125 72.90625 
L 32.078125 72.90625 
Q 44.34375 72.90625 50.609375 67.359375 
Q 56.890625 61.8125 56.890625 51.125 
Q 56.890625 40.328125 50.609375 34.8125 
Q 44.34375 29.296875 32.078125 29.296875 
L 19.671875 29.296875 
L 19.671875 0 
L 9.8125 0 
z
" id="DejaVuSans-80"/>
      <path d="M 30.609375 48.390625 
Q 23.390625 48.390625 19.1875 42.75 
Q 14.984375 37.109375 14.984375 27.296875 
Q 14.984375 17.484375 19.15625 11.84375 
Q 23.34375 6.203125 30.609375 6.203125 
Q 37.796875 6.203125 41.984375 11.859375 
Q 46.1875 17.53125 46.1875 27.296875 
Q 46.1875 37.015625 41.984375 42.703125 
Q 37.796875 48.390625 30.609375 48.390625 
z
M 30.609375 56 
Q 42.328125 56 49.015625 48.375 
Q 55.71875 40.765625 55.71875 27.296875 
Q 55.71875 13.875 49.015625 6.21875 
Q 42.328125 -1.421875 30.609375 -1.421875 
Q 18.84375 -1.421875 12.171875 6.21875 
Q 5.515625 13.875 5.515625 27.296875 
Q 5.515625 40.765625 12.171875 48.375 
Q 18.84375 56 30.609375 56 
z
" id="DejaVuSans-111"/>
      <path d="M 44.28125 53.078125 
L 44.28125 44.578125 
Q 40.484375 46.53125 36.375 47.5 
Q 32.28125 48.484375 27.875 48.484375 
Q 21.1875 48.484375 17.84375 46.4375 
Q 14.5 44.390625 14.5 40.28125 
Q 14.5 37.15625 16.890625 35.375 
Q 19.28125 33.59375 26.515625 31.984375 
L 29.59375 31.296875 
Q 39.15625 29.25 43.1875 25.515625 
Q 47.21875 21.78125 47.21875 15.09375 
Q 47.21875 7.46875 41.1875 3.015625 
Q 35.15625 -1.421875 24.609375 -1.421875 
Q 20.21875 -1.421875 15.453125 -0.5625 
Q 10.6875 0.296875 5.421875 2 
L 5.421875 11.28125 
Q 10.40625 8.6875 15.234375 7.390625 
Q 20.0625 6.109375 24.8125 6.109375 
Q 31.15625 6.109375 34.5625 8.28125 
Q 37.984375 10.453125 37.984375 14.40625 
Q 37.984375 18.0625 35.515625 20.015625 
Q 33.0625 21.96875 24.703125 23.78125 
L 21.578125 24.515625 
Q 13.234375 26.265625 9.515625 29.90625 
Q 5.8125 33.546875 5.8125 39.890625 
Q 5.8125 47.609375 11.28125 51.796875 
Q 16.75 56 26.8125 56 
Q 31.78125 56 36.171875 55.265625 
Q 40.578125 54.546875 44.28125 53.078125 
z
" id="DejaVuSans-115"/>
      <path d="M 18.3125 70.21875 
L 18.3125 54.6875 
L 36.8125 54.6875 
L 36.8125 47.703125 
L 18.3125 47.703125 
L 18.3125 18.015625 
Q 18.3125 11.328125 20.140625 9.421875 
Q 21.96875 7.515625 27.59375 7.515625 
L 36.8125 7.515625 
L 36.8125 0 
L 27.59375 0 
Q 17.1875 0 13.234375 3.875 
Q 9.28125 7.765625 9.28125 18.015625 
L 9.28125 47.703125 
L 2.6875 47.703125 
L 2.6875 54.6875 
L 9.28125 54.6875 
L 9.28125 70.21875 
z
" id="DejaVuSans-116"/>
      <path id="DejaVuSans-32"/>
      <path d="M -0.296875 72.90625 
L 61.375 72.90625 
L 61.375 64.59375 
L 35.5 64.59375 
L 35.5 0 
L 25.59375 0 
L 25.59375 64.59375 
L -0.296875 64.59375 
z
" id="DejaVuSans-84"/>
      <path d="M 9.421875 54.6875 
L 18.40625 54.6875 
L 18.40625 0 
L 9.421875 0 
z
M 9.421875 75.984375 
L 18.40625 75.984375 
L 18.40625 64.59375 
L 9.421875 64.59375 
z
" id="DejaVuSans-105"/>
      <path d="M 9.421875 75.984375 
L 18.40625 75.984375 
L 18.40625 0 
L 9.421875 0 
z
" id="DejaVuSans-108"/>
      <path d="M 56.203125 29.59375 
L 56.203125 25.203125 
L 14.890625 25.203125 
Q 15.484375 15.921875 20.484375 11.0625 
Q 25.484375 6.203125 34.421875 6.203125 
Q 39.59375 6.203125 44.453125 7.46875 
Q 49.3125 8.734375 54.109375 11.28125 
L 54.109375 2.78125 
Q 49.265625 0.734375 44.1875 -0.34375 
Q 39.109375 -1.421875 33.890625 -1.421875 
Q 20.796875 -1.421875 13.15625 6.1875 
Q 5.515625 13.8125 5.515625 26.8125 
Q 5.515625 40.234375 12.765625 48.109375 
Q 20.015625 56 32.328125 56 
Q 43.359375 56 49.78125 48.890625 
Q 56.203125 41.796875 56.203125 29.59375 
z
M 47.21875 32.234375 
Q 47.125 39.59375 43.09375 43.984375 
Q 39.0625 48.390625 32.421875 48.390625 
Q 24.90625 48.390625 20.390625 44.140625 
Q 15.875 39.890625 15.1875 32.171875 
z
" id="DejaVuSans-101"/>
      <path d="M 34.28125 27.484375 
Q 23.390625 27.484375 19.1875 25 
Q 14.984375 22.515625 14.984375 16.5 
Q 14.984375 11.71875 18.140625 8.90625 
Q 21.296875 6.109375 26.703125 6.109375 
Q 34.1875 6.109375 38.703125 11.40625 
Q 43.21875 16.703125 43.21875 25.484375 
L 43.21875 27.484375 
z
M 52.203125 31.203125 
L 52.203125 0 
L 43.21875 0 
L 43.21875 8.296875 
Q 40.140625 3.328125 35.546875 0.953125 
Q 30.953125 -1.421875 24.3125 -1.421875 
Q 15.921875 -1.421875 10.953125 3.296875 
Q 6 8.015625 6 15.921875 
Q 6 25.140625 12.171875 29.828125 
Q 18.359375 34.515625 30.609375 34.515625 
L 43.21875 34.515625 
L 43.21875 35.40625 
Q 43.21875 41.609375 39.140625 45 
Q 35.0625 48.390625 27.6875 48.390625 
Q 23 48.390625 18.546875 47.265625 
Q 14.109375 46.140625 10.015625 43.890625 
L 10.015625 52.203125 
Q 14.9375 54.109375 19.578125 55.046875 
Q 24.21875 56 28.609375 56 
Q 40.484375 56 46.34375 49.84375 
Q 52.203125 43.703125 52.203125 31.203125 
z
" id="DejaVuSans-97"/>
      <path d="M 41.109375 46.296875 
Q 39.59375 47.171875 37.8125 47.578125 
Q 36.03125 48 33.890625 48 
Q 26.265625 48 22.1875 43.046875 
Q 18.109375 38.09375 18.109375 28.8125 
L 18.109375 0 
L 9.078125 0 
L 9.078125 54.6875 
L 18.109375 54.6875 
L 18.109375 46.1875 
Q 20.953125 51.171875 25.484375 53.578125 
Q 30.03125 56 36.53125 56 
Q 37.453125 56 38.578125 55.875 
Q 39.703125 55.765625 41.0625 55.515625 
z
" id="DejaVuSans-114"/>
      <path d="M 32.171875 -5.078125 
Q 28.375 -14.84375 24.75 -17.8125 
Q 21.140625 -20.796875 15.09375 -20.796875 
L 7.90625 -20.796875 
L 7.90625 -13.28125 
L 13.1875 -13.28125 
Q 16.890625 -13.28125 18.9375 -11.515625 
Q 21 -9.765625 23.484375 -3.21875 
L 25.09375 0.875 
L 2.984375 54.6875 
L 12.5 54.6875 
L 29.59375 11.921875 
L 46.6875 54.6875 
L 56.203125 54.6875 
z
" id="DejaVuSans-121"/>
     </defs>
     <g transform="translate(192.589687 308.946963)scale(0.1 -0.1)">
      <use xlink:href="#DejaVuSans-80"/>
      <use x="60.255859" xlink:href="#DejaVuSans-111"/>
      <use x="121.4375" xlink:href="#DejaVuSans-115"/>
      <use x="173.537109" xlink:href="#DejaVuSans-116"/>
      <use x="212.746094" xlink:href="#DejaVuSans-32"/>
      <use x="244.533203" xlink:href="#DejaVuSans-84"/>
      <use x="305.570312" xlink:href="#DejaVuSans-105"/>
      <use x="333.353516" xlink:href="#DejaVuSans-116"/>
      <use x="372.5625" xlink:href="#DejaVuSans-108"/>
      <use x="400.345703" xlink:href="#DejaVuSans-101"/>
      <use x="461.869141" xlink:href="#DejaVuSans-32"/>
      <use x="493.65625" xlink:href="#DejaVuSans-80"/>
      <use x="553.912109" xlink:href="#DejaVuSans-111"/>
      <use x="615.09375" xlink:href="#DejaVuSans-108"/>
      <use x="642.876953" xlink:href="#DejaVuSans-97"/>
      <use x="704.15625" xlink:href="#DejaVuSans-114"/>
      <use x="745.269531" xlink:href="#DejaVuSans-105"/>
      <use x="773.052734" xlink:href="#DejaVuSans-116"/>
      <use x="812.261719" xlink:href="#DejaVuSans-121"/>
     </g>
    </g>
   </g>
   <g id="matplotlib.axis_2">
    <g id="ytick_1">
     <g id="line2d_6">
      <defs>
       <path d="M 0 0 
L -3.5 0 
" id="mad551b86f1" style="stroke:#000000;stroke-width:0.8;"/>
      </defs>
      <g>
       <use style="stroke:#000000;stroke-width:0.8;" x="57.6" xlink:href="#mad551b86f1" y="280.6704"/>
      </g>
     </g>
     <g id="text_7">
      <!-- 0 -->
      <g transform="translate(44.2375 284.469619)scale(0.1 -0.1)">
       <use xlink:href="#DejaVuSans-48"/>
      </g>
     </g>
    </g>
    <g id="ytick_2">
     <g id="line2d_7">
      <g>
       <use style="stroke:#000000;stroke-width:0.8;" x="57.6" xlink:href="#mad551b86f1" y="236.258628"/>
      </g>
     </g>
     <g id="text_8">
      <!-- 1 -->
      <g transform="translate(44.2375 240.057847)scale(0.1 -0.1)">
       <use xlink:href="#DejaVuSans-49"/>
      </g>
     </g>
    </g>
    <g id="ytick_3">
     <g id="line2d_8">
      <g>
       <use style="stroke:#000000;stroke-width:0.8;" x="57.6" xlink:href="#mad551b86f1" y="191.846856"/>
      </g>
     </g>
     <g id="text_9">
      <!-- 2 -->
      <defs>
       <path d="M 19.1875 8.296875 
L 53.609375 8.296875 
L 53.609375 0 
L 7.328125 0 
L 7.328125 8.296875 
Q 12.9375 14.109375 22.625 23.890625 
Q 32.328125 33.6875 34.8125 36.53125 
Q 39.546875 41.84375 41.421875 45.53125 
Q 43.3125 49.21875 43.3125 52.78125 
Q 43.3125 58.59375 39.234375 62.25 
Q 35.15625 65.921875 28.609375 65.921875 
Q 23.96875 65.921875 18.8125 64.3125 
Q 13.671875 62.703125 7.8125 59.421875 
L 7.8125 69.390625 
Q 13.765625 71.78125 18.9375 73 
Q 24.125 74.21875 28.421875 74.21875 
Q 39.75 74.21875 46.484375 68.546875 
Q 53.21875 62.890625 53.21875 53.421875 
Q 53.21875 48.921875 51.53125 44.890625 
Q 49.859375 40.875 45.40625 35.40625 
Q 44.1875 33.984375 37.640625 27.21875 
Q 31.109375 20.453125 19.1875 8.296875 
z
" id="DejaVuSans-50"/>
      </defs>
      <g transform="translate(44.2375 195.646075)scale(0.1 -0.1)">
       <use xlink:href="#DejaVuSans-50"/>
      </g>
     </g>
    </g>
    <g id="ytick_4">
     <g id="line2d_9">
      <g>
       <use style="stroke:#000000;stroke-width:0.8;" x="57.6" xlink:href="#mad551b86f1" y="147.435084"/>
      </g>
     </g>
     <g id="text_10">
      <!-- 3 -->
      <defs>
       <path d="M 40.578125 39.3125 
Q 47.65625 37.796875 51.625 33 
Q 55.609375 28.21875 55.609375 21.1875 
Q 55.609375 10.40625 48.1875 4.484375 
Q 40.765625 -1.421875 27.09375 -1.421875 
Q 22.515625 -1.421875 17.65625 -0.515625 
Q 12.796875 0.390625 7.625 2.203125 
L 7.625 11.71875 
Q 11.71875 9.328125 16.59375 8.109375 
Q 21.484375 6.890625 26.8125 6.890625 
Q 36.078125 6.890625 40.9375 10.546875 
Q 45.796875 14.203125 45.796875 21.1875 
Q 45.796875 27.640625 41.28125 31.265625 
Q 36.765625 34.90625 28.71875 34.90625 
L 20.21875 34.90625 
L 20.21875 43.015625 
L 29.109375 43.015625 
Q 36.375 43.015625 40.234375 45.921875 
Q 44.09375 48.828125 44.09375 54.296875 
Q 44.09375 59.90625 40.109375 62.90625 
Q 36.140625 65.921875 28.71875 65.921875 
Q 24.65625 65.921875 20.015625 65.03125 
Q 15.375 64.15625 9.8125 62.3125 
L 9.8125 71.09375 
Q 15.4375 72.65625 20.34375 73.4375 
Q 25.25 74.21875 29.59375 74.21875 
Q 40.828125 74.21875 47.359375 69.109375 
Q 53.90625 64.015625 53.90625 55.328125 
Q 53.90625 49.265625 50.4375 45.09375 
Q 46.96875 40.921875 40.578125 39.3125 
z
" id="DejaVuSans-51"/>
      </defs>
      <g transform="translate(44.2375 151.234303)scale(0.1 -0.1)">
       <use xlink:href="#DejaVuSans-51"/>
      </g>
     </g>
    </g>
    <g id="ytick_5">
     <g id="line2d_10">
      <g>
       <use style="stroke:#000000;stroke-width:0.8;" x="57.6" xlink:href="#mad551b86f1" y="103.023312"/>
      </g>
     </g>
     <g id="text_11">
      <!-- 4 -->
      <defs>
       <path d="M 37.796875 64.3125 
L 12.890625 25.390625 
L 37.796875 25.390625 
z
M 35.203125 72.90625 
L 47.609375 72.90625 
L 47.609375 25.390625 
L 58.015625 25.390625 
L 58.015625 17.1875 
L 47.609375 17.1875 
L 47.609375 0 
L 37.796875 0 
L 37.796875 17.1875 
L 4.890625 17.1875 
L 4.890625 26.703125 
z
" id="DejaVuSans-52"/>
      </defs>
      <g transform="translate(44.2375 106.822531)scale(0.1 -0.1)">
       <use xlink:href="#DejaVuSans-52"/>
      </g>
     </g>
    </g>
    <g id="ytick_6">
     <g id="line2d_11">
      <g>
       <use style="stroke:#000000;stroke-width:0.8;" x="57.6" xlink:href="#mad551b86f1" y="58.61154"/>
      </g>
     </g>
     <g id="text_12">
      <!-- 5 -->
      <g transform="translate(44.2375 62.410759)scale(0.1 -0.1)">
       <use xlink:href="#DejaVuSans-53"/>
      </g>
     </g>
    </g>
   </g>
   <g id="line2d_12">
    <path clip-path="url(#p350ef3e5f5)" d="M 73.832727 280.651541 
L 77.112066 280.604312 
L 80.391405 280.481092 
L 83.670744 280.226769 
L 86.950083 279.818585 
L 90.229421 279.326293 
L 93.50876 278.917104 
L 96.788099 278.757363 
L 100.067438 278.883457 
L 103.346777 279.176506 
L 106.626116 279.458484 
L 109.905455 279.588142 
L 113.184793 279.476344 
L 116.464132 279.0695 
L 119.743471 278.356492 
L 123.02281 277.373518 
L 126.302149 276.192726 
L 129.581488 274.953048 
L 132.860826 273.925185 
L 136.140165 273.451372 
L 139.419504 273.692094 
L 142.698843 274.432158 
L 145.978182 275.224371 
L 149.257521 275.718227 
L 152.53686 275.7773 
L 155.816198 275.352669 
L 159.095537 274.447178 
L 162.374876 273.241378 
L 165.654215 272.040555 
L 168.933554 270.962799 
L 172.212893 269.852594 
L 175.492231 268.687179 
L 178.77157 267.908424 
L 182.050909 268.064511 
L 185.330248 269.141695 
L 188.609587 270.479749 
L 191.888926 271.378079 
L 195.168264 271.631694 
L 198.447603 271.464809 
L 201.726942 271.112389 
L 205.006281 270.570376 
L 208.28562 269.659891 
L 211.564959 268.055553 
L 214.844298 264.745929 
L 218.123636 256.770039 
L 221.402975 238.265157 
L 224.682314 202.457685 
L 227.961653 148.527202 
L 231.240992 89.298695 
L 234.520331 49.4064 
L 237.799669 49.465329 
L 241.079008 89.115344 
L 244.358347 147.26541 
L 247.637686 199.370695 
L 250.917025 233.192465 
L 254.196364 250.236735 
L 257.475702 257.669556 
L 260.755041 261.382508 
L 264.03438 264.19273 
L 267.313719 266.905318 
L 270.593058 269.519026 
L 273.872397 271.824548 
L 277.151736 273.658723 
L 280.431074 275.000578 
L 283.710413 275.932725 
L 286.989752 276.531819 
L 290.269091 276.776307 
L 293.54843 276.536524 
L 296.827769 275.710267 
L 300.107107 274.474556 
L 303.386446 273.401692 
L 306.665785 273.169791 
L 309.945124 274.030117 
L 313.224463 275.584239 
L 316.503802 277.121833 
L 319.78314 278.121207 
L 323.062479 278.43459 
L 326.341818 278.179796 
L 329.621157 277.623593 
L 332.900496 277.110914 
L 336.179835 276.918378 
L 339.459174 277.092577 
L 342.738512 277.475238 
L 346.017851 277.903448 
L 349.29719 278.33864 
L 352.576529 278.801414 
L 355.855868 279.249891 
L 359.135207 279.550331 
L 362.414545 279.529136 
L 365.693884 279.057212 
L 368.973223 278.172701 
L 372.252562 277.183883 
L 375.531901 276.582481 
L 378.81124 276.725478 
L 382.090579 277.555139 
L 385.369917 278.660705 
L 388.649256 279.611834 
L 391.928595 280.215218 
L 395.207934 280.510625 
L 398.487273 280.624619 
" style="fill:none;stroke:#1f77b4;stroke-linecap:square;stroke-width:1.5;"/>
   </g>
   <g id="patch_3">
    <path d="M 57.6 280.6704 
L 57.6 37.8432 
" style="fill:none;stroke:#000000;stroke-linecap:square;stroke-linejoin:miter;stroke-width:0.8;"/>
   </g>
   <g id="patch_4">
    <path d="M 414.72 280.6704 
L 414.72 37.8432 
" style="fill:none;stroke:#000000;stroke-linecap:square;stroke-linejoin:miter;stroke-width:0.8;"/>
   </g>
   <g id="patch_5">
    <path d="M 57.6 280.6704 
L 414.72 280.6704 
" style="fill:none;stroke:#000000;stroke-linecap:square;stroke-linejoin:miter;stroke-width:0.8;"/>
   </g>
   <g id="patch_6">
    <path d="M 57.6 37.8432 
L 414.72 37.8432 
" style="fill:none;stroke:#000000;stroke-linecap:square;stroke-linejoin:miter;stroke-width:0.8;"/>
   </g>
  </g>
 </g>
 <defs>
  <clipPath id="p350ef3e5f5">
   <rect height="242.8272" width="357.12" x="57.6" y="37.8432"/>
  </clipPath>
 </defs>
</svg>
